HIERARCHY
ROOT hip
{
	OFFSET 0.000000 0.000000 0.000000
	CHANNELS 6 Xposition Yposition Zposition Xrotation Zrotation Yrotation 
	JOINT abdomen
	{
		OFFSET 0.000000 3.422050 0.000000
		CHANNELS 3 Xrotation Zrotation Yrotation 
		JOINT chest
		{
			OFFSET 0.000000 8.486693 -0.684411
			CHANNELS 3 Xrotation Zrotation Yrotation 
			JOINT neck
			{
				OFFSET 0.000000 10.266162 -0.273764
				CHANNELS 3 Xrotation Zrotation Yrotation 
				JOINT head
				{
					OFFSET 0.000000 3.148285 0.000000
					CHANNELS 3 Xrotation Zrotation Yrotation 
					End Site
					{
						OFFSET 0.000000 3.148289 0.000000
					}
				}
			}
			JOINT lCollar
			{
				OFFSET 3.422053 6.707223 -0.821293
				CHANNELS 3 Yrotation Zrotation Xrotation 
				JOINT lShldr
				{
					OFFSET 3.285171 0.000000 0.000000
					CHANNELS 3 Zrotation Yrotation Xrotation 
					JOINT lForeArm
					{
						OFFSET 10.129278 0.000000 0.000000
						CHANNELS 3 Yrotation Zrotation Xrotation 
						JOINT lHand
						{
							OFFSET 8.486692 0.000000 0.000000
							CHANNELS 3 Zrotation Yrotation Xrotation 
							End Site
							{
								OFFSET 4.106464 0.000000 0.000000
							}
						}
					}
				}
			}
			JOINT rCollar
			{
				OFFSET -3.558935 6.707223 -0.821293
				CHANNELS 3 Yrotation Zrotation Xrotation 
				JOINT rShldr
				{
					OFFSET -3.148289 0.000000 0.000000
					CHANNELS 3 Zrotation Yrotation Xrotation 
					JOINT rForeArm
					{
						OFFSET -10.266159 0.000000 0.000000
						CHANNELS 3 Yrotation Zrotation Xrotation 
						JOINT rHand
						{
							OFFSET -8.349810 0.000000 0.000000
							CHANNELS 3 Zrotation Yrotation Xrotation 
							End Site
							{
								OFFSET -4.106464 0.000000 0.000000
							}
						}
					}
				}
			}
		}
	}
	JOINT lThigh
	{
		OFFSET 5.338403 -1.642589 1.368821
		CHANNELS 3 Xrotation Zrotation Yrotation 
		JOINT lShin
		{
			OFFSET -2.053232 -20.121670 0.000000
			CHANNELS 3 Xrotation Zrotation Yrotation 
			JOINT lFoot
			{
				OFFSET 0.000000 -19.300380 -1.231939
				CHANNELS 3 Xrotation Yrotation Zrotation 
				End Site
				{
					OFFSET 0.000000 -2.463878 4.653993
				}
			}
		}
	}
	JOINT rThigh
	{
		OFFSET -5.338403 -1.642589 1.368821
		CHANNELS 3 Xrotation Zrotation Yrotation 
		JOINT rShin
		{
			OFFSET 2.053232 -20.121670 0.000000
			CHANNELS 3 Xrotation Zrotation Yrotation 
			JOINT rFoot
			{
				OFFSET 0.000000 -19.300380 -1.231939
				CHANNELS 3 Xrotation Yrotation Zrotation 
				End Site
				{
					OFFSET 0.000000 -2.463878 4.653993
				}
			}
		}
	}
}
MOTION
Frames: 15
Frame Time: 0.033302
7.998946 14.073606 7.998947 -33.000099 0.000000 0.000000 57.998005 0.000000 0.000000 19.998167 0.000000 0.000000 30.999151 0.000000 0.000000 -14.178277 1.463385 21.948280 0.000000 0.000000 0.000000 -75.999939 4.996779 0.000451 -141.005188 0.000000 0.000000 -13.637733 6.809489 -12.889976 16.997015 0.000000 0.000000 36.996304 25.899948 29.996159 64.046440 4.151953 -4.194013 14.998928 19.996950 -9.003785 -24.898926 31.605846 -29.673597 136.839737 -0.000001 0.000000 48.998291 -0.000680 -1.000834 -20.001921 -38.921814 29.999546 134.993393 -0.000002 0.000001 20.996786 0.000000 0.000000 
7.998946 13.843011 7.998947 -33.000099 0.000000 0.000000 57.998005 0.000000 0.000000 19.998167 0.000000 0.000000 30.999151 0.000000 0.000000 -12.896568 1.239676 22.401333 0.000000 0.000000 0.000000 -75.999939 4.996779 0.000451 -141.005188 0.000000 0.000000 -13.664458 7.210922 -13.652482 16.997015 0.000000 0.000000 36.996349 25.600214 29.996223 60.031483 4.554879 -2.481013 14.998928 19.996950 -9.003785 -25.642828 32.762295 -29.632233 137.301453 -0.000001 0.000000 48.998291 -0.000680 -1.000834 -20.001850 -40.153980 29.999666 134.993393 -0.000002 0.000001 20.996786 0.000000 0.000000 
7.998946 13.612415 7.998947 -33.000099 0.000000 0.000000 57.998005 0.000000 0.000000 19.998167 0.000000 0.000000 30.999151 0.000000 0.000000 -11.624455 1.007334 22.846567 0.000000 0.000000 0.000000 -75.999939 4.996779 0.000451 -141.005188 0.000000 0.000000 -13.696570 7.611716 -14.415398 16.997015 0.000000 0.000000 36.996384 25.300484 29.996275 56.009846 4.836724 -0.745486 14.998928 19.996950 -9.003785 -26.396000 33.919605 -29.608398 137.763184 -0.000001 0.000000 48.998291 -0.000680 -1.000834 -20.001770 -41.386555 29.999769 134.993393 -0.000002 0.000001 20.996786 0.000000 0.000000 
7.998946 13.381821 7.998947 -33.000099 0.000000 0.000000 57.998005 0.000000 0.000000 19.998167 0.000000 0.000000 30.999151 0.000000 0.000000 -10.362227 0.766724 23.283760 0.000000 0.000000 0.000000 -75.999939 4.996779 0.000451 -141.005188 0.000000 0.000000 -13.734073 8.011759 -15.178716 16.997015 0.000000 0.000000 36.996426 25.000778 29.996336 51.996799 4.996027 0.998929 14.998926 19.996948 -9.003784 -27.159231 35.077251 -29.602829 138.224930 -0.000001 0.000000 48.998291 -0.000680 -1.000834 -20.001705 -42.619297 29.999889 134.993393 -0.000002 0.000001 20.996786 0.000000 0.000000 
7.998946 13.151224 7.998947 -33.000099 0.000000 0.000000 57.998005 0.000000 0.000000 19.998167 0.000000 0.000000 30.999151 0.000000 0.000000 -9.110151 0.518213 23.712723 0.000000 0.000000 0.000000 -75.999939 4.996779 0.000451 -141.005188 0.000000 0.000000 -13.776957 8.410935 -15.942420 16.997015 0.000000 0.000000 36.996380 25.375418 29.996265 57.015049 4.777730 -1.180738 14.998930 19.996952 -9.003786 -27.933357 36.234692 -29.616291 138.686661 -0.000001 0.000000 48.998291 -0.000680 -1.000834 -20.001631 -43.851875 29.999994 134.993393 -0.000002 0.000001 20.996786 0.000000 0.000000 
7.998946 12.920630 7.998947 -33.000099 0.000000 0.000000 57.998005 0.000000 0.000000 19.998167 0.000000 0.000000 30.999151 0.000000 0.000000 -7.868471 0.262173 24.133297 0.000000 0.000000 0.000000 -75.999939 4.996779 0.000451 -141.005188 0.000000 0.000000 -13.825218 8.809128 -16.706507 16.997015 0.000000 0.000000 36.996326 25.750084 29.996193 62.040733 4.368379 -3.341168 14.998928 19.996950 -9.003785 -28.719252 37.391350 -29.649605 139.148392 -0.000000 0.000000 48.998291 -0.000680 -1.000834 -20.001570 -45.084045 30.000116 134.993393 -0.000002 0.000001 20.996786 0.000000 0.000000 
7.998946 12.690034 7.998947 -33.000099 0.000000 0.000000 57.998005 0.000000 0.000000 19.998167 0.000000 0.000000 30.999151 0.000000 0.000000 -6.637417 -0.001020 24.545326 0.000000 0.000000 0.000000 -75.999939 4.996779 0.000451 -141.005188 0.000000 0.000000 -13.878845 9.206225 -17.470953 16.997015 0.000000 0.000000 36.996269 26.124754 29.996111 67.044296 3.772334 -5.456029 14.998928 19.996950 -9.003785 -29.517906 38.546688 -29.703697 139.610062 -0.000000 0.000000 48.998291 -0.000680 -1.000834 -20.001505 -46.315502 30.000233 134.993393 -0.000002 0.000001 20.996786 0.000000 0.000000 
7.998946 12.459438 7.998947 -33.000099 0.000000 0.000000 57.998005 0.000000 0.000000 19.998167 0.000000 0.000000 30.999151 0.000000 0.000000 -5.310439 0.021902 25.035172 0.000000 0.000000 0.000000 -75.999939 4.996779 0.000451 -141.005188 0.000000 0.000000 -13.937834 9.602117 -18.235754 16.997015 0.000000 0.000000 36.996216 26.499439 29.996037 71.997589 2.998794 -7.500629 14.998926 19.996948 -9.003784 -30.330347 39.700142 -29.779520 140.071686 -0.000000 0.000000 48.998291 -0.000680 -1.000834 -20.001440 -47.545948 30.000343 134.993393 -0.000002 0.000001 20.996786 0.000000 0.000000 
7.998946 12.228843 7.998947 -33.000099 0.000000 0.000000 57.998005 0.000000 0.000000 19.998167 0.000000 0.000000 30.999151 0.000000 0.000000 -3.982707 0.033475 25.525652 0.000000 0.000000 0.000000 -75.999939 4.996779 0.000451 -141.005188 0.000000 0.000000 -14.002161 9.996684 -19.000891 16.997015 0.000000 0.000000 36.996162 26.874128 29.995960 77.013176 2.780130 -9.679172 14.998930 19.996952 -9.003786 -31.157650 40.851097 -29.878096 140.533249 -0.000000 0.000000 48.998291 -0.000680 -1.000834 -20.001373 -48.775124 30.000448 134.993393 -0.000002 0.000001 20.996786 0.000000 0.000000 
7.998946 11.998247 7.998947 -33.000099 0.000000 0.000000 57.998005 0.000000 0.000000 19.998167 0.000000 0.000000 30.999151 0.000000 0.000000 -2.654721 0.033679 26.016338 0.000000 0.000000 0.000000 -75.999939 4.996779 0.000451 -140.121872 0.000000 0.000000 -13.390322 9.948865 -18.672016 16.997015 0.000000 0.000000 36.996101 27.248798 29.995878 82.037735 2.370081 -11.839158 14.998928 19.996950 -9.003785 -32.001057 41.999001 -30.000582 140.994720 0.000000 0.000000 48.998291 -0.000680 -1.000834 -20.001320 -50.002739 30.000568 134.993393 -0.000002 0.000001 20.996786 0.000000 0.000000 
7.998946 12.248059 7.998947 -33.000099 0.000000 0.000000 57.998005 0.000000 0.000000 19.998167 0.000000 0.000000 30.999151 0.000000 0.000000 -1.326985 0.022514 26.506821 0.000000 0.000000 0.000000 -75.999939 4.996779 0.000451 -139.235016 0.000000 0.000000 -12.777597 9.897481 -18.343050 16.997015 0.000000 0.000000 36.996044 27.623459 29.995800 87.041695 1.772982 -13.954247 14.998926 19.996948 -9.003784 -31.088112 40.755291 -29.868988 140.494781 -0.000000 0.000000 48.998291 -0.000680 -1.000834 -20.001389 -48.672756 30.000448 134.993393 -0.000002 0.000001 20.996786 0.000000 0.000000 
7.998946 12.497870 7.998947 -33.000099 0.000000 0.000000 57.998005 0.000000 0.000000 19.998167 0.000000 0.000000 30.999151 0.000000 0.000000 0.000000 0.000000 26.996685 0.000000 0.000000 0.000000 -75.999939 4.996779 0.000451 -138.344711 0.000000 0.000000 -12.164055 9.842521 -18.014051 16.997015 0.000000 0.000000 36.995991 27.998096 29.995722 91.996910 0.998083 -15.999687 14.998930 19.996952 -9.003786 -30.193932 39.508053 -29.765329 139.994751 -0.000000 0.000000 48.998291 -0.000680 -1.000834 -20.001448 -47.340950 30.000319 134.993393 -0.000002 0.000001 20.996786 0.000000 0.000000 
7.998946 12.747683 7.998947 -33.000099 0.000000 0.000000 57.998005 0.000000 0.000000 19.998167 0.000000 0.000000 30.999151 0.000000 0.000000 0.004243 -0.001002 26.569267 0.000000 0.000000 0.000000 -75.999939 4.996779 0.000451 -137.451019 0.000000 0.000000 -11.549760 9.783978 -17.685093 16.997015 0.000000 0.000000 38.812492 27.701096 30.043625 88.037514 1.631850 -14.369658 14.998928 19.996950 -9.003785 -29.316996 38.258015 -29.688179 139.494644 -0.000000 0.000000 48.998291 -0.000680 -1.000834 -20.001518 -46.007713 30.000196 134.993393 -0.000002 0.000001 20.996786 0.000000 0.000000 
7.998946 12.997495 7.998947 -33.000099 0.000000 0.000000 57.998005 0.000000 0.000000 19.998167 0.000000 0.000000 30.999151 0.000000 0.000000 0.008496 -0.001973 26.141472 0.000000 0.000000 0.000000 -75.999939 4.996779 0.000451 -136.554016 0.000000 0.000000 -10.934771 9.721844 -17.356230 16.997015 0.000000 0.000000 40.627464 27.402292 30.080833 84.043411 2.153275 -12.692015 14.998928 19.996950 -9.003785 -28.455925 37.005920 -29.636250 138.994492 -0.000001 0.000000 48.998291 -0.000680 -1.000834 -20.001589 -44.673389 30.000076 134.993393 -0.000002 0.000001 20.996786 0.000000 0.000000 
7.998946 13.247306 7.998947 -33.000099 0.000000 0.000000 57.998005 0.000000 0.000000 19.998167 0.000000 0.000000 30.999151 0.000000 0.000000 0.012761 -0.002912 25.713327 0.000000 0.000000 0.000000 -75.999939 4.996779 0.000451 -135.653854 0.000000 0.000000 -10.319159 9.656116 -17.027533 16.997015 0.000000 0.000000 42.440105 27.102142 30.107327 80.028748 2.556904 -10.979098 14.998926 19.996948 -9.003784 -27.609425 35.752487 -29.608316 138.494278 -0.000001 0.000000 48.998291 -0.000680 -1.000834 -20.001663 -43.338345 29.999954 134.993393 -0.000002 0.000001 20.996786 0.000000 0.000000 
